#!OML:ASF I:\golf\golf\golf 2\Subject 1\2002-09-07\Subject1.ASF
:FULLY-SPECIFIED
:DEGREES
578
root 0.506438 17.9473 -5.47064 9.80835 -11.1108 -5.92095
lowerback -7.13971 -0.270589 -3.67054
upperback -3.20541 -0.205183 4.93777
thorax 0.706708 -0.0474963 7.22188
lowerneck -22.1466 -6.81879 -4.08772
upperneck 19.252 -9.03749 3.82314
head 10.1502 -4.01657 0.637031
rclavicle -1.07965e-014 -6.36111e-014
rhumerus -28.8322 0.827175 -81.2836
rradius 33.9222
rwrist -10.1721
rhand -15.0998 9.86972
rfingers 7.12502
rthumb 11.0685 -19.8184
lclavicle -1.07965e-014 -6.36111e-014
lhumerus -30.8384 -0.511302 85.8624
lradius 33.5262
lwrist 5.59489
lhand -9.74723 33.1997
lfingers 7.12502
lthumb 16.227 62.5406
rfemur -17.6556 -0.318792 21.4165
rtibia 29.6635
rfoot -14.3749 -6.19502
rtoes -8.43246
lfemur -12.2177 1.91865 -12.0428
ltibia 28.8228
lfoot -17.9728 12.6163
ltoes -9.07976
579
root 0.477553 17.9483 -5.46654 9.79926 -11.039 -5.97757
lowerback -7.16081 -0.273735 -3.53721
upperback -3.15012 -0.218184 4.90233
thorax 0.778182 -0.0588117 7.10539
lowerneck -22.3742 -6.85903 -4.03548
upperneck 19.3766 -9.12888 3.90123
head 10.2415 -4.03829 0.633177
rclavicle 2.73888e-014 1.74931e-014
rhumerus -28.7744 0.66366 -81.3356
rradius 34.0963
rwrist -10.2826
rhand -15.308 9.43087
rfingers 7.12502
rthumb 10.8677 -20.2679
lclavicle 2.73888e-014 1.74931e-014
lhumerus -30.7685 -0.76394 85.9611
lradius 33.3467
lwrist 5.47153
lhand -9.77 32.9986
lfingers 7.12502
lthumb 16.2051 62.3413
rfemur -17.7176 -0.459937 21.5837
rtibia 29.83
rfoot -14.4422 -6.06822
rtoes -7.27925
lfemur -12.0783 2.03698 -11.8777
ltibia 28.6831
lfoot -17.8525 12.5368
ltoes -9.65408
580
root 0.450172 17.948 -5.46234 9.72175 -11.0198 -6.00718
lowerback -7.1448 -0.304401 -3.56252
upperback -3.19009 -0.258624 4.9926
thorax 0.733743 -0.0763048 7.21373
lowerneck -22.1285 -6.8461 -4.1332
upperneck 19.3345 -9.08669 3.90291
head 10.1855 -4.03185 0.663563
rclavicle -1.58282e-014 4.37326e-015
rhumerus -28.9214 0.714559 -81.2282
rradius 34.1661
rwrist -10.2494
rhand -15.6221 8.9708
rfingers 7.12502
rthumb 10.5647 -20.7437
lclavicle -1.58282e-014 4.37326e-015
lhumerus -30.9484 -0.803491 86.2255
lradius 33.1533
lwrist 5.33983
lhand -9.81064 32.7742
lfingers 7.12502
lthumb 16.166 62.1201
rfemur -17.6999 -0.521503 21.6994
rtibia 29.9867
rfoot -14.5926 -5.89962
rtoes -5.3944
lfemur -11.8841 1.95863 -11.7499
ltibia 28.5625
lfoot -17.822 12.5791
ltoes -9.49566
581
root 0.417848 17.9448 -5.4614 9.78228 -10.8952 -6.13419
lowerback -7.04212 -0.368231 -3.54159
upperback -3.42713 -0.343574 5.09393
thorax 0.44309 -0.104315 7.30338
lowerneck -21.561 -6.82275 -4.15523
upperneck 19.257 -9.04908 3.82888
head 10.0513 -4.03839 0.664824
rclavicle -2.23384e-014 -2.42517e-014
rhumerus -29.3207 0.717973 -81.1907
rradius 34.1834
rwrist -10.1354
rhand -16.0186 8.68149
rfingers 7.12502
rthumb 10.1822 -21.0521
lclavicle -2.23384e-014 -2.42517e-014
lhumerus -31.4395 -0.923944 86.4813
lradius 33.2065
lwrist 5.28534
lhand -9.68781 33.246
lfingers 7.12502
lthumb 16.2843 62.5822
rfemur -17.7595 -0.503517 21.9686
rtibia 30.1033
rfoot -14.7183 -5.99141
rtoes -4.59771
lfemur -11.8795 1.67958 -11.4749
ltibia 28.497
lfoot -17.8239 12.6727
ltoes -9.00894
582
root 0.385825 17.9444 -5.45839 9.85679 -10.7714 -6.27426
lowerback -7.09993 -0.363757 -3.35388
upperback -3.28954 -0.351528 5.08864
thorax 0.619494 -0.11876 7.18787
lowerneck -22.2468 -6.89176 -4.03794
upperneck 19.4682 -9.16282 3.81192
head 10.2482 -4.06623 0.599341
rclavicle 1.55301e-016 8.34896e-015
rhumerus -28.9987 0.446592 -81.2158
rradius 34.129
rwrist -10.0554
rhand -16.4039 8.55174
rfingers 7.12502
rthumb 9.81045 -21.1997
lclavicle 1.55301e-016 8.34896e-015
lhumerus -31.1161 -1.15229 86.6467
lradius 33.1343
lwrist 5.20268
lhand -9.43605 33.7007
lfingers 7.12502
lthumb 16.5267 63.0169
rfemur -17.8107 -0.592258 22.2544
rtibia 30.1729
rfoot -14.8299 -5.99052
rtoes -4.04607
lfemur -11.9327 1.41598 -11.2008
ltibia 28.5148
lfoot -17.7376 12.9101
ltoes -9.61453
583
root 0.357859 17.9355 -5.45252 9.77873 -10.846 -6.41599
lowerback -7.31381 -0.345805 -3.2889
upperback -3.12007 -0.335849 5.20301
thorax 0.912233 -0.123508 7.27534
lowerneck -22.29 -6.89856 -4.13675
upperneck 19.3678 -9.13545 3.83152
head 10.2246 -4.05921 0.626181
rclavicle 2.004e-014 3.29983e-014
rhumerus -28.93 0.487518 -81.0984
rradius 34.1596
rwrist -9.95261
rhand -16.7388 8.37887
rfingers 7.12502
rthumb 9.48742 -21.3876
lclavicle 2.004e-014 3.29983e-014
lhumerus -30.9902 -1.16587 86.9274
lradius 32.9324
lwrist 5.10306
lhand -9.24401 33.6481
lfingers 7.12502
lthumb 16.7115 62.9488
rfemur -17.6493 -0.648152 22.502
rtibia 30.2179
rfoot -14.9303 -5.9134
rtoes -5.32198
lfemur -11.7605 1.35045 -10.9785
ltibia 28.5561
lfoot -17.6657 13.219
ltoes -10.6947
584
root 0.328633 17.9261 -5.44915 9.72701 -10.9158 -6.47645
lowerback -7.09597 -0.334447 -3.19091
upperback -3.29733 -0.324662 5.19544
thorax 0.605212 -0.105732 7.20984
lowerneck -21.9213 -6.8693 -4.08222
upperneck 19.3029 -9.11497 3.78949
head 10.1292 -4.0598 0.617995
rclavicle 6.31141e-015 5.56597e-015
rhumerus -29.3837 0.473783 -81.1383
rradius 34.1668
rwrist -9.70479
rhand -17.0901 8.31853
rfingers 7.12502
rthumb 9.14842 -21.463
lclavicle 6.31141e-015 5.56597e-015
lhumerus -31.4388 -1.19802 86.9959
lradius 32.7587
lwrist 5.002
lhand -9.13984 32.9712
lfingers 7.12502
lthumb 16.8118 62.2634
rfemur -17.5431 -0.573427 22.671
rtibia 30.2806
rfoot -14.9233 -6.00619
rtoes -7.04246
lfemur -11.6276 1.41271 -10.824
ltibia 28.5495
lfoot -17.6286 13.3367
ltoes -11.2762
585
root 0.296877 17.9309 -5.44737 9.78107 -10.8854 -6.48475
lowerback -6.96021 -0.320897 -3.16026
upperback -3.41423 -0.305878 5.14676
thorax 0.405491 -0.0884089 7.1406
lowerneck -21.9346 -6.89136 -3.94289
upperneck 19.3576 -9.18668 3.75614
head 10.1454 -4.08541 0.572004
rclavicle -1.97418e-014 -8.74653e-015
rhumerus -29.5324 0.269776 -81.1551
rradius 33.9941
rwrist -9.52976
rhand -17.3783 8.48118
rfingers 7.12502
rthumb 8.8703 -21.3124
lclavicle -1.97418e-014 -8.74653e-015
lhumerus -31.6493 -1.243 87.0395
lradius 32.6213
lwrist 4.66022
lhand -9.00983 32.3618
lfingers 7.12502
lthumb 16.937 61.6433
rfemur -17.6469 -0.548288 22.8005
rtibia 30.3572
rfoot -14.8918 -5.99834
rtoes -6.10975
lfemur -11.6742 1.46103 -10.6904
ltibia 28.5302
lfoot -17.6323 13.3162
ltoes -11.5629
586
root 0.266145 17.9351 -5.44372 9.81866 -10.8953 -6.47372
lowerback -7.41608 -0.280289 -3.26234
upperback -3.05451 -0.24974 5.15844
thorax 1.02421 -0.0852212 7.21983
lowerneck -22.5979 -6.942 -3.81787
upperneck 19.3016 -9.26815 3.76021
head 10.2411 -4.09978 0.52187
rclavicle 1.00697e-014 -3.53837e-014
rhumerus -28.9634 -0.00118531 -81.0409
rradius 33.793
rwrist -9.44079
rhand -17.5122 8.60167
rfingers 7.12502
rthumb 8.74113 -21.1973
lclavicle 1.00697e-014 -3.53837e-014
lhumerus -31.0355 -1.3802 87.2625
lradius 32.3834
lwrist 4.44265
lhand -8.93347 32.2655
lfingers 7.12502
lthumb 17.0105 61.5407
rfemur -17.7307 -0.650792 22.8949
rtibia 30.4304
rfoot -14.9588 -5.82561
rtoes -4.63099
lfemur -11.6623 1.42522 -10.5977
ltibia 28.4985
lfoot -17.6575 13.3599
ltoes -11.6487
587
root 0.236747 17.9281 -5.44117 9.8273 -10.8631 -6.44228
lowerback -7.26329 -0.266283 -3.32522
upperback -3.10883 -0.226099 5.12938
thorax 0.879328 -0.0674177 7.22602
lowerneck -22.8416 -6.96269 -3.72175
upperneck 19.445 -9.33254 3.77229
head 10.335 -4.11295 0.491277
rclavicle 3.57564e-014 -2.5842e-014
rhumerus -29.1808 -0.13713 -81.0271
rradius 33.7955
rwrist -9.2931
rhand -17.6542 8.57877
rfingers 7.12502
rthumb 8.60403 -21.2259
lclavicle 3.57564e-014 -2.5842e-014
lhumerus -31.0915 -1.63143 87.4195
lradius 32.1696
lwrist 4.48923
lhand -8.88168 32.2389
lfingers 7.12502
lthumb 17.0603 61.5098
rfemur -17.7002 -0.775032 22.981
rtibia 30.4844
rfoot -15.0544 -5.86866
rtoes -5.75445
lfemur -11.6067 1.2177 -10.5391
ltibia 28.4511
lfoot -17.5938 13.5521
ltoes -11.7419
588
root 0.207885 17.9225 -5.43846 9.82209 -10.8862 -6.46826
lowerback -7.21216 -0.268648 -3.31889
upperback -3.13579 -0.229801 5.14084
thorax 0.823465 -0.0670331 7.23397
lowerneck -22.8729 -6.96008 -3.72796
upperneck 19.4848 -9.34275 3.82879
head 10.3591 -4.1097 0.508863
rclavicle 1.717e-014 -3.06128e-014
rhumerus -29.3362 -0.214197 -80.997
rradius 33.6427
rwrist -9.11303
rhand -17.8428 8.70253
rfingers 7.12502
rthumb 8.42201 -21.1096
lclavicle 1.717e-014 -3.06128e-014
lhumerus -31.1544 -1.73524 87.5635
lradius 31.9185
lwrist 4.45573
lhand -8.79119 32.1954
lfingers 7.12502
lthumb 17.1474 61.4588
rfemur -17.6187 -0.744939 23.1151
rtibia 30.4687
rfoot -15.0968 -5.97555
rtoes -6.99558
lfemur -11.5646 1.04647 -10.4269
ltibia 28.4875
lfoot -17.5857 13.7818
ltoes -11.864
589
root 0.178915 17.9225 -5.43451 9.81711 -10.9767 -6.58249
lowerback -7.3049 -0.248381 -3.28108
upperback -3.04936 -0.208317 5.23289
thorax 0.961598 -0.0622811 7.31358
lowerneck -22.974 -6.99076 -3.80585
upperneck 19.4548 -9.36126 3.86304
head 10.3729 -4.11801 0.527449
rclavicle 1.88473e-014 -1.15295e-014
rhumerus -29.2543 -0.255124 -80.8762
rradius 33.3296
rwrist -9.0683
rhand -17.8455 8.92315
rfingers 7.12502
rthumb 8.41947 -20.889
lclavicle 1.88473e-014 -1.15295e-014
lhumerus -31.0692 -1.58672 87.7441
lradius 31.6373
lwrist 4.30892
lhand -8.61891 32.1856
lfingers 7.12502
lthumb 17.3132 61.4345
rfemur -17.5367 -0.636642 23.316
rtibia 30.3839
rfoot -15.1196 -5.87084
rtoes -6.33227
lfemur -11.523 1.07898 -10.2112
ltibia 28.5834
lfoot -17.661 13.8391
ltoes -11.9409
590
root 0.150438 17.916 -5.42693 9.82896 -11.0491 -6.81167
lowerback -7.45807 -0.180043 -3.04374
upperback -2.96058 -0.135303 5.26842
thorax 1.1284 -0.0337756 7.22114
lowerneck -22.9421 -7.05885 -3.72722
upperneck 19.3748 -9.47373 3.84218
head 10.3373 -4.1683 0.491651
rclavicle 3.06377e-014 -2.38542e-014
rhumerus -29.234 -0.489786 -80.8047
rradius 33.0029
rwrist -9.08795
rhand -17.7519 9.10963
rfingers 7.12502
rthumb 8.50977 -20.6989
lclavicle 3.06377e-014 -2.38542e-014
lhumerus -31.0783 -1.66934 87.8657
lradius 31.4109
lwrist 4.2805
lhand -8.5355 32.0293
lfingers 7.12502
lthumb 17.3935 61.271
rfemur -17.4027 -0.666103 23.6519
rtibia 30.2933
rfoot -15.1659 -5.73128
rtoes -7.0825
lfemur -11.4233 1.03919 -9.8755
ltibia 28.6161
lfoot -17.6978 13.9515
ltoes -12.0818
591
root 0.122912 17.9146 -5.41405 9.79464 -11.2289 -7.04931
lowerback -7.4563 -0.101268 -2.81451
upperback -3.02587 -0.0456417 5.31937
thorax 1.04689 0.0138412 7.1497
lowerneck -22.5752 -7.05455 -3.70111
upperneck 19.3259 -9.48268 3.82028
head 10.2518 -4.1821 0.49035
rclavicle -1.39274e-014 3.26007e-014
rhumerus -29.5137 -0.683187 -80.7109
rradius 32.6352
rwrist -9.04874
rhand -17.7613 9.36341
rfingers 7.12502
rthumb 8.5007 -20.4455
lclavicle -1.39274e-014 3.26007e-014
lhumerus -31.4843 -1.8964 88.0423
lradius 31.2574
lwrist 4.32976
lhand -8.62788 31.8186
lfingers 7.12502
lthumb 17.3046 61.0682
rfemur -17.2348 -0.70623 23.9778
rtibia 30.2433
rfoot -15.2322 -5.50199
rtoes -7.25992
lfemur -11.1708 0.933694 -9.57811
ltibia 28.5719
lfoot -17.8057 14.2254
ltoes -11.843
592
root 0.0946112 17.9239 -5.40534 9.75645 -11.3203 -7.17765
lowerback -7.16241 -0.15226 -2.81718
upperback -3.37409 -0.107909 5.47816
thorax 0.530186 0.00507474 7.31349
lowerneck -21.7061 -6.97135 -4.02157
upperneck 19.2907 -9.32596 3.94684
head 10.1009 -4.13795 0.636394
rclavicle -4.01918e-014 -4.6118e-014
rhumerus -30.179 -0.577436 -80.5231
rradius 32.2397
rwrist -8.99899
rhand -17.7117 9.51305
rfingers 7.12502
rthumb 8.54857 -20.2939
lclavicle -4.01918e-014 -4.6118e-014
lhumerus -32.3213 -1.6229 88.2236
lradius 31.069
lwrist 4.20477
lhand -8.58619 31.849
lfingers 7.12502
lthumb 17.3447 61.095
rfemur -17.1502 -0.588351 24.1755
rtibia 30.2174
rfoot -15.2948 -5.2875
rtoes -4.47053
lfemur -10.9856 0.898256 -9.37436
ltibia 28.5245
lfoot -17.8558 14.3805
ltoes -11.8398
